<svg width="16" height="16" viewBox="0 0 16 16" fill="none" xmlns="http://www.w3.org/2000/svg">
<path d="M15.6686 7.48076L0.811792 0.623786C0.575226 0.51636 0.292947 0.580359 0.12838 0.783782C-0.0373304 0.987206 -0.0430445 1.27634 0.114666 1.48548L5.00026 7.99961L0.114666 14.5137C-0.0430445 14.7229 -0.0373304 15.0131 0.127237 15.2154C0.238091 15.3537 0.403802 15.428 0.571797 15.428C0.652938 15.428 0.734079 15.4109 0.810649 15.3754L15.6674 8.51845C15.8708 8.42474 16 8.22246 16 7.99961C16 7.77675 15.8708 7.57447 15.6686 7.48076Z" fill="#FFED00"/>
<path d="M0.811783 0.623786L15.6686 7.48076C15.8708 7.57447 16 7.77675 16 7.99961H5.00025L0.114657 1.48548C-0.0430532 1.27634 -0.037339 0.987206 0.128371 0.783782C0.292939 0.580359 0.575217 0.51636 0.811783 0.623786Z" fill="white"/>
<path d="M0.811783 0.623786L15.6686 7.48076C15.8708 7.57447 16 7.77675 16 7.99961H5.00025L0.114657 1.48548C-0.0430532 1.27634 -0.037339 0.987206 0.128371 0.783782C0.292939 0.580359 0.575217 0.51636 0.811783 0.623786Z" fill="black" fill-opacity="0.75"/>
</svg>
