<svg width="20" height="20" viewBox="0 0 20 20" fill="none" xmlns="http://www.w3.org/2000/svg">
<path d="M0 10C0 4.47715 4.47715 0 10 0C15.5228 0 20 4.47715 20 10C20 15.5228 15.5228 20 10 20C4.47715 20 0 15.5228 0 10Z" fill="#FFED00"/>
<path fill-rule="evenodd" clip-rule="evenodd" d="M13.1661 6.5438L8.32777 11.2235L6.85676 9.8007C6.44122 9.38848 5.75889 9.37828 5.33033 9.77864C4.90052 10.1802 4.88862 10.8426 5.30357 11.2583C5.31112 11.2659 5.31882 11.2734 5.32662 11.2808L7.56271 13.4435C7.98526 13.8522 8.67032 13.8521 9.09286 13.4435L14.6899 8.03002L14.6962 8.02372C15.1114 7.60795 15.0995 6.94536 14.6696 6.54383C14.2503 6.15211 13.5854 6.15202 13.1661 6.5438Z" fill="white"/>
<path fill-rule="evenodd" clip-rule="evenodd" d="M13.1661 6.5438L8.32777 11.2235L6.85676 9.8007C6.44122 9.38848 5.75889 9.37828 5.33033 9.77864C4.90052 10.1802 4.88862 10.8426 5.30357 11.2583C5.31112 11.2659 5.31882 11.2734 5.32662 11.2808L7.56271 13.4435C7.98526 13.8522 8.67032 13.8521 9.09286 13.4435L14.6899 8.03002L14.6962 8.02372C15.1114 7.60795 15.0995 6.94536 14.6696 6.54383C14.2503 6.15211 13.5854 6.15202 13.1661 6.5438Z" fill="black" fill-opacity="0.75"/>
</svg>
