<svg width="20" height="20" viewBox="0 0 20 20" fill="none" xmlns="http://www.w3.org/2000/svg">
<g clip-path="url(#clip0_2216_2958)">
<path d="M11.1723 10.0056L19.7455 1.43242C20.0764 1.11286 20.0856 0.585585 19.766 0.254696C19.4465 -0.0761918 18.9192 -0.0853669 18.5883 0.234199C18.5814 0.240885 18.5745 0.247718 18.5678 0.254696L9.99456 8.82788L1.42137 0.254648C1.09048 -0.0649182 0.563206 -0.0557431 0.24364 0.275145C-0.0681178 0.597932 -0.0681178 1.10964 0.24364 1.43242L8.81683 10.0056L0.24364 18.5788C-0.0815388 18.904 -0.0815388 19.4313 0.24364 19.7565C0.568867 20.0816 1.09614 20.0816 1.42137 19.7565L9.99456 11.1833L18.5678 19.7565C18.8986 20.0761 19.4259 20.0669 19.7455 19.736C20.0572 19.4132 20.0572 18.9015 19.7455 18.5788L11.1723 10.0056Z" fill="white"/>
<path d="M11.1723 10.0056L19.7455 1.43242C20.0764 1.11286 20.0856 0.585585 19.766 0.254696C19.4465 -0.0761918 18.9192 -0.0853669 18.5883 0.234199C18.5814 0.240885 18.5745 0.247718 18.5678 0.254696L9.99456 8.82788L1.42137 0.254648C1.09048 -0.0649182 0.563206 -0.0557431 0.24364 0.275145C-0.0681178 0.597932 -0.0681178 1.10964 0.24364 1.43242L8.81683 10.0056L0.24364 18.5788C-0.0815388 18.904 -0.0815388 19.4313 0.24364 19.7565C0.568867 20.0816 1.09614 20.0816 1.42137 19.7565L9.99456 11.1833L18.5678 19.7565C18.8986 20.0761 19.4259 20.0669 19.7455 19.736C20.0572 19.4132 20.0572 18.9015 19.7455 18.5788L11.1723 10.0056Z" fill="black" fill-opacity="0.75"/>
</g>
<defs>
<clipPath id="clip0_2216_2958">
<rect width="20" height="20" fill="white"/>
</clipPath>
</defs>
</svg>
