<svg width="20" height="20" viewBox="0 0 20 20" fill="none" xmlns="http://www.w3.org/2000/svg">
<path d="M11.1723 10.0056L19.7455 1.43242C20.0764 1.11285 20.0856 0.585581 19.766 0.254693C19.4465 -0.0761956 18.9192 -0.0853707 18.5883 0.234195C18.5814 0.240881 18.5745 0.247714 18.5678 0.254693L9.99456 8.82787L1.42137 0.254644C1.09048 -0.064922 0.563206 -0.0557469 0.24364 0.275141C-0.0681178 0.597928 -0.0681178 1.10963 0.24364 1.43242L8.81683 10.0056L0.24364 18.5788C-0.0815388 18.904 -0.0815388 19.4313 0.24364 19.7565C0.568867 20.0816 1.09614 20.0816 1.42137 19.7565L9.99456 11.1833L18.5678 19.7565C18.8986 20.0761 19.4259 20.0669 19.7455 19.736C20.0572 19.4132 20.0572 18.9015 19.7455 18.5788L11.1723 10.0056Z" fill="black" fill-opacity="0.15"/>
</svg>
