<svg width="32" height="20" viewBox="0 0 32 20" fill="none" xmlns="http://www.w3.org/2000/svg">
<path d="M11.6 8.08123C11.2438 8.08123 10.9063 7.89373 10.725 7.58123C10.7125 7.56249 10.7 7.54374 10.6875 7.51873L8.31251 4.16249C7.55001 2.92499 6.18126 2.15624 4.72501 2.15624C4.71876 2.15624 4.71876 2.15624 4.71251 2.15624L0.925009 2.19999C0.406259 2.20624 -0.00624094 2.63124 9.05796e-06 3.14999C0.00625906 3.66249 0.425009 4.07499 0.937509 4.07499C0.943759 4.07499 0.943759 4.07499 0.950009 4.07499L4.73126 4.03124C5.54376 4.03124 6.30626 4.46874 6.72501 5.16249C6.73751 5.18124 6.75001 5.19999 6.76251 5.21874L9.13751 8.57498C9.66251 9.42498 10.6063 9.94998 11.6 9.94998C12.7875 9.94998 13.7563 10.9187 13.7563 12.1062V14.2375C13.7563 14.8 13.3 15.2562 12.7375 15.2562H9.62501C9.21251 13.75 7.83751 12.6437 6.20001 12.6437C4.56251 12.6437 3.18751 13.75 2.77501 15.2562H0.937509C0.418759 15.2562 9.05796e-06 15.675 9.05796e-06 16.1937C9.05796e-06 16.7125 0.418759 17.1312 0.937509 17.1312H2.78126C3.19376 18.6375 4.56876 19.7437 6.20626 19.7437C7.84376 19.7437 9.21876 18.6375 9.63126 17.1312H12.7375C14.3375 17.1312 15.6313 15.8312 15.6313 14.2375V12.1062C15.6313 9.89374 13.825 8.08123 11.6 8.08123ZM6.20626 17.8812C5.28126 17.8812 4.53126 17.1312 4.53126 16.2062C4.53126 15.2812 5.28126 14.5312 6.20626 14.5312C7.13126 14.5312 7.88126 15.2812 7.88126 16.2062C7.88126 17.1312 7.12501 17.8812 6.20626 17.8812ZM9.05796e-06 9.64998C9.05796e-06 9.13124 0.418759 8.71248 0.937509 8.71248H4.70626C5.22501 8.71248 5.64376 9.13124 5.64376 9.64998C5.64376 10.1687 5.22501 10.5875 4.70626 10.5875H0.937509C0.418759 10.5875 9.05796e-06 10.1687 9.05796e-06 9.64998ZM31.0625 15.2687H29.2188C28.8063 13.7625 27.4313 12.6562 25.7938 12.6562C24.1563 12.6562 22.7813 13.7625 22.3688 15.2687H19.2625C18.7 15.2687 18.2438 14.8125 18.2438 14.25V12.1187C18.2438 10.9312 19.2125 9.96248 20.4 9.96248C21.4 9.96248 22.3375 9.43748 22.8625 8.58748L25.2375 5.23124C25.25 5.21249 25.2625 5.19374 25.275 5.17499C25.6938 4.47499 26.4625 4.04374 27.275 4.04374H31.0625C31.5813 4.04374 32 3.62499 32 3.10624C32 2.58749 31.5813 2.16874 31.0625 2.16874H27.275C25.8188 2.16874 24.45 2.93749 23.6875 4.17499L21.3125 7.53123C21.3 7.54998 21.2875 7.56873 21.275 7.59373C21.0938 7.89998 20.7563 8.09373 20.4 8.09373C18.1813 8.09373 16.3688 9.89999 16.3688 12.125V14.2562C16.3688 15.8562 17.6688 17.15 19.2625 17.15H22.375C22.7875 18.6562 24.1625 19.7625 25.8 19.7625C27.4375 19.7625 28.8125 18.6562 29.225 17.15H31.0625C31.5813 17.15 32 16.7312 32 16.2125C32 15.6937 31.5813 15.2687 31.0625 15.2687ZM25.7938 17.8812C24.8688 17.8812 24.1188 17.1312 24.1188 16.2062C24.1188 15.2812 24.8688 14.5312 25.7938 14.5312C26.7188 14.5312 27.4688 15.2812 27.4688 16.2062C27.4688 17.1312 26.7188 17.8812 25.7938 17.8812ZM32 9.64998C32 10.1687 31.5813 10.5875 31.0625 10.5875H27.2938C26.775 10.5875 26.3563 10.1687 26.3563 9.64998C26.3563 9.13124 26.775 8.71248 27.2938 8.71248H31.0625C31.5813 8.71248 32 9.13748 32 9.64998ZM18.5625 6.45624C18.1938 6.08749 18.1938 5.49374 18.5625 5.13124L20.3688 3.32499C20.7375 2.95624 21.3313 2.95624 21.6938 3.32499C22.0625 3.69374 22.0625 4.28749 21.6938 4.64998L19.8875 6.45624C19.7063 6.63749 19.4625 6.73124 19.225 6.73124C18.9875 6.73124 18.7438 6.64374 18.5625 6.45624ZM16 5.21248C15.4813 5.21248 15.0625 4.79374 15.0625 4.27498V1.18124C15.0625 0.662486 15.4813 0.243736 16 0.243736C16.5188 0.243736 16.9375 0.662486 16.9375 1.18124V4.27498C16.9375 4.79374 16.5188 5.21248 16 5.21248ZM10.3 4.64998C9.93126 4.28124 9.93126 3.68749 10.3 3.32499C10.6688 2.95624 11.2625 2.95624 11.625 3.32499L13.4313 5.13124C13.8 5.49999 13.8 6.09374 13.4313 6.45624C13.25 6.63749 13.0063 6.73124 12.7688 6.73124C12.5313 6.73124 12.2875 6.63749 12.1063 6.45624L10.3 4.64998Z" fill="white"/>
<path d="M11.6 8.08123C11.2438 8.08123 10.9063 7.89373 10.725 7.58123C10.7125 7.56249 10.7 7.54374 10.6875 7.51873L8.31251 4.16249C7.55001 2.92499 6.18126 2.15624 4.72501 2.15624C4.71876 2.15624 4.71876 2.15624 4.71251 2.15624L0.925009 2.19999C0.406259 2.20624 -0.00624094 2.63124 9.05796e-06 3.14999C0.00625906 3.66249 0.425009 4.07499 0.937509 4.07499C0.943759 4.07499 0.943759 4.07499 0.950009 4.07499L4.73126 4.03124C5.54376 4.03124 6.30626 4.46874 6.72501 5.16249C6.73751 5.18124 6.75001 5.19999 6.76251 5.21874L9.13751 8.57498C9.66251 9.42498 10.6063 9.94998 11.6 9.94998C12.7875 9.94998 13.7563 10.9187 13.7563 12.1062V14.2375C13.7563 14.8 13.3 15.2562 12.7375 15.2562H9.62501C9.21251 13.75 7.83751 12.6437 6.20001 12.6437C4.56251 12.6437 3.18751 13.75 2.77501 15.2562H0.937509C0.418759 15.2562 9.05796e-06 15.675 9.05796e-06 16.1937C9.05796e-06 16.7125 0.418759 17.1312 0.937509 17.1312H2.78126C3.19376 18.6375 4.56876 19.7437 6.20626 19.7437C7.84376 19.7437 9.21876 18.6375 9.63126 17.1312H12.7375C14.3375 17.1312 15.6313 15.8312 15.6313 14.2375V12.1062C15.6313 9.89374 13.825 8.08123 11.6 8.08123ZM6.20626 17.8812C5.28126 17.8812 4.53126 17.1312 4.53126 16.2062C4.53126 15.2812 5.28126 14.5312 6.20626 14.5312C7.13126 14.5312 7.88126 15.2812 7.88126 16.2062C7.88126 17.1312 7.12501 17.8812 6.20626 17.8812ZM9.05796e-06 9.64998C9.05796e-06 9.13124 0.418759 8.71248 0.937509 8.71248H4.70626C5.22501 8.71248 5.64376 9.13124 5.64376 9.64998C5.64376 10.1687 5.22501 10.5875 4.70626 10.5875H0.937509C0.418759 10.5875 9.05796e-06 10.1687 9.05796e-06 9.64998ZM31.0625 15.2687H29.2188C28.8063 13.7625 27.4313 12.6562 25.7938 12.6562C24.1563 12.6562 22.7813 13.7625 22.3688 15.2687H19.2625C18.7 15.2687 18.2438 14.8125 18.2438 14.25V12.1187C18.2438 10.9312 19.2125 9.96248 20.4 9.96248C21.4 9.96248 22.3375 9.43748 22.8625 8.58748L25.2375 5.23124C25.25 5.21249 25.2625 5.19374 25.275 5.17499C25.6938 4.47499 26.4625 4.04374 27.275 4.04374H31.0625C31.5813 4.04374 32 3.62499 32 3.10624C32 2.58749 31.5813 2.16874 31.0625 2.16874H27.275C25.8188 2.16874 24.45 2.93749 23.6875 4.17499L21.3125 7.53123C21.3 7.54998 21.2875 7.56873 21.275 7.59373C21.0938 7.89998 20.7563 8.09373 20.4 8.09373C18.1813 8.09373 16.3688 9.89999 16.3688 12.125V14.2562C16.3688 15.8562 17.6688 17.15 19.2625 17.15H22.375C22.7875 18.6562 24.1625 19.7625 25.8 19.7625C27.4375 19.7625 28.8125 18.6562 29.225 17.15H31.0625C31.5813 17.15 32 16.7312 32 16.2125C32 15.6937 31.5813 15.2687 31.0625 15.2687ZM25.7938 17.8812C24.8688 17.8812 24.1188 17.1312 24.1188 16.2062C24.1188 15.2812 24.8688 14.5312 25.7938 14.5312C26.7188 14.5312 27.4688 15.2812 27.4688 16.2062C27.4688 17.1312 26.7188 17.8812 25.7938 17.8812ZM32 9.64998C32 10.1687 31.5813 10.5875 31.0625 10.5875H27.2938C26.775 10.5875 26.3563 10.1687 26.3563 9.64998C26.3563 9.13124 26.775 8.71248 27.2938 8.71248H31.0625C31.5813 8.71248 32 9.13748 32 9.64998ZM18.5625 6.45624C18.1938 6.08749 18.1938 5.49374 18.5625 5.13124L20.3688 3.32499C20.7375 2.95624 21.3313 2.95624 21.6938 3.32499C22.0625 3.69374 22.0625 4.28749 21.6938 4.64998L19.8875 6.45624C19.7063 6.63749 19.4625 6.73124 19.225 6.73124C18.9875 6.73124 18.7438 6.64374 18.5625 6.45624ZM16 5.21248C15.4813 5.21248 15.0625 4.79374 15.0625 4.27498V1.18124C15.0625 0.662486 15.4813 0.243736 16 0.243736C16.5188 0.243736 16.9375 0.662486 16.9375 1.18124V4.27498C16.9375 4.79374 16.5188 5.21248 16 5.21248ZM10.3 4.64998C9.93126 4.28124 9.93126 3.68749 10.3 3.32499C10.6688 2.95624 11.2625 2.95624 11.625 3.32499L13.4313 5.13124C13.8 5.49999 13.8 6.09374 13.4313 6.45624C13.25 6.63749 13.0063 6.73124 12.7688 6.73124C12.5313 6.73124 12.2875 6.63749 12.1063 6.45624L10.3 4.64998Z" fill="black" fill-opacity="0.75"/>
</svg>
