<svg width="32" height="32" viewBox="0 0 32 32" fill="none" xmlns="http://www.w3.org/2000/svg">
<path d="M29.1875 3.67501H2.8125C1.2625 3.67501 0 4.93751 0 6.48751V25.5125C0 27.0625 1.2625 28.325 2.8125 28.325H29.1875C30.7375 28.325 32 27.0625 32 25.5125V6.48751C32 4.93751 30.7375 3.67501 29.1875 3.67501ZM30.125 25.5125C30.125 26.0313 29.7063 26.45 29.1875 26.45H2.8125C2.29375 26.45 1.875 26.0313 1.875 25.5125V6.48751C1.875 5.96876 2.29375 5.55001 2.8125 5.55001H29.1875C29.7063 5.55001 30.125 5.96876 30.125 6.48751V25.5125ZM12.7 14.9C13.2125 14.3063 13.5188 13.5375 13.5188 12.6938C13.5188 10.8188 11.9937 9.29376 10.1187 9.29376C8.24375 9.29376 6.71875 10.8188 6.71875 12.6938C6.71875 13.5375 7.025 14.3063 7.5375 14.9C5.9625 15.8 4.9 17.5 4.9 19.4375V20.5375C4.9 21.7313 5.86875 22.7 7.0625 22.7H13.1875C14.3813 22.7 15.35 21.7313 15.35 20.5375V19.4375C15.3438 17.5 14.2812 15.8 12.7 14.9ZM8.6 12.6938C8.6 11.8563 9.28125 11.1688 10.125 11.1688C10.9688 11.1688 11.65 11.85 11.65 12.6938C11.65 13.5313 10.9688 14.2188 10.125 14.2188C9.28125 14.2188 8.6 13.5313 8.6 12.6938ZM13.4688 20.5438C13.4688 20.7 13.3375 20.8313 13.1812 20.8313H7.05625C6.9 20.8313 6.76875 20.7 6.76875 20.5438V19.4375C6.76875 17.5938 8.26875 16.0875 10.1187 16.0875C11.9687 16.0875 13.4688 17.5875 13.4688 19.4375V20.5438ZM27.1 12.8438C27.1 13.3625 26.6813 13.7813 26.1625 13.7813H17.8687C17.35 13.7813 16.9312 13.3625 16.9312 12.8438C16.9312 12.325 17.35 11.9063 17.8687 11.9063H26.1688C26.6813 11.9063 27.1 12.325 27.1 12.8438ZM27.1 16C27.1 16.5188 26.6813 16.9375 26.1625 16.9375H17.8687C17.35 16.9375 16.9312 16.5188 16.9312 16C16.9312 15.4813 17.35 15.0625 17.8687 15.0625H26.1688C26.6813 15.0625 27.1 15.4813 27.1 16ZM27.1 19.1563C27.1 19.675 26.6813 20.0938 26.1625 20.0938H22.0125C21.4938 20.0938 21.075 19.675 21.075 19.1563C21.075 18.6375 21.4938 18.2188 22.0125 18.2188H26.1625C26.6813 18.2188 27.1 18.6375 27.1 19.1563Z" fill="white"/>
<path d="M29.1875 3.67501H2.8125C1.2625 3.67501 0 4.93751 0 6.48751V25.5125C0 27.0625 1.2625 28.325 2.8125 28.325H29.1875C30.7375 28.325 32 27.0625 32 25.5125V6.48751C32 4.93751 30.7375 3.67501 29.1875 3.67501ZM30.125 25.5125C30.125 26.0313 29.7063 26.45 29.1875 26.45H2.8125C2.29375 26.45 1.875 26.0313 1.875 25.5125V6.48751C1.875 5.96876 2.29375 5.55001 2.8125 5.55001H29.1875C29.7063 5.55001 30.125 5.96876 30.125 6.48751V25.5125ZM12.7 14.9C13.2125 14.3063 13.5188 13.5375 13.5188 12.6938C13.5188 10.8188 11.9937 9.29376 10.1187 9.29376C8.24375 9.29376 6.71875 10.8188 6.71875 12.6938C6.71875 13.5375 7.025 14.3063 7.5375 14.9C5.9625 15.8 4.9 17.5 4.9 19.4375V20.5375C4.9 21.7313 5.86875 22.7 7.0625 22.7H13.1875C14.3813 22.7 15.35 21.7313 15.35 20.5375V19.4375C15.3438 17.5 14.2812 15.8 12.7 14.9ZM8.6 12.6938C8.6 11.8563 9.28125 11.1688 10.125 11.1688C10.9688 11.1688 11.65 11.85 11.65 12.6938C11.65 13.5313 10.9688 14.2188 10.125 14.2188C9.28125 14.2188 8.6 13.5313 8.6 12.6938ZM13.4688 20.5438C13.4688 20.7 13.3375 20.8313 13.1812 20.8313H7.05625C6.9 20.8313 6.76875 20.7 6.76875 20.5438V19.4375C6.76875 17.5938 8.26875 16.0875 10.1187 16.0875C11.9687 16.0875 13.4688 17.5875 13.4688 19.4375V20.5438ZM27.1 12.8438C27.1 13.3625 26.6813 13.7813 26.1625 13.7813H17.8687C17.35 13.7813 16.9312 13.3625 16.9312 12.8438C16.9312 12.325 17.35 11.9063 17.8687 11.9063H26.1688C26.6813 11.9063 27.1 12.325 27.1 12.8438ZM27.1 16C27.1 16.5188 26.6813 16.9375 26.1625 16.9375H17.8687C17.35 16.9375 16.9312 16.5188 16.9312 16C16.9312 15.4813 17.35 15.0625 17.8687 15.0625H26.1688C26.6813 15.0625 27.1 15.4813 27.1 16ZM27.1 19.1563C27.1 19.675 26.6813 20.0938 26.1625 20.0938H22.0125C21.4938 20.0938 21.075 19.675 21.075 19.1563C21.075 18.6375 21.4938 18.2188 22.0125 18.2188H26.1625C26.6813 18.2188 27.1 18.6375 27.1 19.1563Z" fill="black" fill-opacity="0.75"/>
</svg>
