<svg width="50" height="50" viewBox="0 0 50 50" fill="none" xmlns="http://www.w3.org/2000/svg">
<path fill-rule="evenodd" clip-rule="evenodd" d="M1.46602 23.9258L23.9479 1.42403C24.5128 0.858657 25.5296 0.858657 26.0944 1.42403L48.5763 23.9258C49.1412 24.4912 49.1412 25.5088 48.5763 26.0742L26.0944 48.576C25.5296 49.1413 24.5128 49.1413 23.9479 48.576L1.46602 26.0742C0.84466 25.5088 0.84466 24.4912 1.46602 23.9258Z" fill="white" stroke="black" stroke-width="0.216" stroke-miterlimit="22.9256"/>
<path fill-rule="evenodd" clip-rule="evenodd" d="M9.26116 24.2651L24.2868 9.22626C24.6822 8.8305 25.3035 8.8305 25.6989 9.22626L40.7245 24.2651C41.1199 24.6609 41.1199 25.2828 40.7245 25.6786L25.7554 40.774C25.36 41.1697 24.7387 41.1697 24.3432 40.774L9.26116 25.7351C8.86575 25.3393 8.86575 24.6609 9.26116 24.2651Z" fill="#FFED00" stroke="black" stroke-width="0.216" stroke-miterlimit="22.9256"/>
</svg>
