<svg width="32" height="32" viewBox="0 0 32 32" fill="none" xmlns="http://www.w3.org/2000/svg">
<g clip-path="url(#clip0_2680_2809)">
<path d="M31.45 28.25L22.95 21.35C26.55 16.4 26 9.5 21.6 5.1C19.2 2.65 16 1.35 12.65 1.35C9.3 1.35 6.15 2.65 3.75 5.05C1.35 7.45 0 10.65 0 14C0 17.35 1.35 20.55 3.75 22.95C6.3 25.5 9.5 26.7 12.7 26.7C15.75 26.7 18.85 25.65 21.25 23.35L29.9 30.4C30.15 30.65 30.45 30.65 30.7 30.65C31.1 30.65 31.5 30.5 31.75 30.1C32.15 29.6 32.15 28.8 31.45 28.25ZM12.65 24C10 24 7.45 22.95 5.6 21.05C3.75 19.2 2.65 16.65 2.65 14C2.65 11.35 3.7 8.8 5.6 6.95C7.5 5.1 10 4 12.65 4C15.3 4 17.85 5.05 19.7 6.95C21.55 8.85 22.65 11.35 22.65 14C22.65 16.65 21.6 19.2 19.7 21.05C17.85 22.95 15.35 24 12.65 24Z" fill="white"/>
<path d="M31.45 28.25L22.95 21.35C26.55 16.4 26 9.5 21.6 5.1C19.2 2.65 16 1.35 12.65 1.35C9.3 1.35 6.15 2.65 3.75 5.05C1.35 7.45 0 10.65 0 14C0 17.35 1.35 20.55 3.75 22.95C6.3 25.5 9.5 26.7 12.7 26.7C15.75 26.7 18.85 25.65 21.25 23.35L29.9 30.4C30.15 30.65 30.45 30.65 30.7 30.65C31.1 30.65 31.5 30.5 31.75 30.1C32.15 29.6 32.15 28.8 31.45 28.25ZM12.65 24C10 24 7.45 22.95 5.6 21.05C3.75 19.2 2.65 16.65 2.65 14C2.65 11.35 3.7 8.8 5.6 6.95C7.5 5.1 10 4 12.65 4C15.3 4 17.85 5.05 19.7 6.95C21.55 8.85 22.65 11.35 22.65 14C22.65 16.65 21.6 19.2 19.7 21.05C17.85 22.95 15.35 24 12.65 24Z" fill="black" fill-opacity="0.75"/>
</g>
<defs>
<clipPath id="clip0_2680_2809">
<rect width="32" height="32" fill="white"/>
</clipPath>
</defs>
</svg>
