<svg width="20" height="20" viewBox="0 0 20 20" fill="none" xmlns="http://www.w3.org/2000/svg">
<path d="M19.6562 17.6562L14.3438 13.3437C16.5938 10.25 16.25 5.9375 13.5 3.1875C12 1.65625 10 0.84375 7.90625 0.84375C5.8125 0.84375 3.84375 1.65625 2.34375 3.15625C0.84375 4.65625 0 6.65625 0 8.75C0 10.8437 0.84375 12.8437 2.34375 14.3437C3.9375 15.9375 5.9375 16.6875 7.9375 16.6875C9.84375 16.6875 11.7812 16.0312 13.2812 14.5937L18.6875 19C18.8438 19.1562 19.0312 19.1562 19.1875 19.1562C19.4375 19.1562 19.6875 19.0625 19.8438 18.8125C20.0938 18.5 20.0938 18 19.6562 17.6562ZM7.90625 15C6.25 15 4.65625 14.3437 3.5 13.1562C2.34375 12 1.65625 10.4062 1.65625 8.75C1.65625 7.09375 2.3125 5.5 3.5 4.34375C4.6875 3.1875 6.25 2.5 7.90625 2.5C9.5625 2.5 11.1562 3.15625 12.3125 4.34375C13.4688 5.53125 14.1562 7.09375 14.1562 8.75C14.1562 10.4062 13.5 12 12.3125 13.1562C11.1562 14.3437 9.59375 15 7.90625 15Z" fill="black" fill-opacity="0.35"/>
</svg>
