<svg width="32" height="32" viewBox="0 0 32 32" fill="none" xmlns="http://www.w3.org/2000/svg">
<path d="M32 17.7875C32 17.7812 32 17.775 32 17.7687C32 17.7625 32 17.7563 32 17.7437C32 17.725 32 17.7062 32 17.6875C32 17.675 32 17.6625 31.9937 17.65C31.9937 17.6313 31.9875 17.6125 31.9875 17.6C31.9875 17.5875 31.9813 17.5688 31.975 17.5562C31.9688 17.5437 31.9688 17.525 31.9625 17.5125C31.9562 17.4938 31.95 17.475 31.9438 17.4625C31.9375 17.45 31.9375 17.4375 31.9312 17.425C31.925 17.4062 31.9125 17.3875 31.9062 17.3687C31.9062 17.3625 31.9 17.3563 31.9 17.35L27.2812 8.11875H29.2938C29.8125 8.11875 30.2313 7.7 30.2313 7.18125C30.2313 6.6625 29.8125 6.24375 29.2938 6.24375H19.4625C19.4375 6.15625 19.4125 6.06875 19.3813 5.9875C19.0188 4.9625 18.225 4.1625 17.1938 3.8C17.1063 3.76875 17.025 3.74375 16.9375 3.71875V0.9375C16.9375 0.41875 16.5187 0 16 0C15.4812 0 15.0625 0.41875 15.0625 0.9375V3.7125C14.975 3.7375 14.8875 3.7625 14.8062 3.79375C13.7812 4.15625 12.9812 4.95 12.6187 5.98125C12.5875 6.06875 12.5625 6.15 12.5375 6.2375H2.7C2.18125 6.2375 1.7625 6.65625 1.7625 7.175C1.7625 7.69375 2.18125 8.1125 2.7 8.1125H4.7125L0.1 17.3438C0.09375 17.35 0.09375 17.3562 0.09375 17.3625C0.0875 17.3812 0.075 17.4 0.06875 17.4188C0.0625 17.4313 0.0625 17.4437 0.05625 17.4562C0.05 17.475 0.04375 17.4875 0.0375 17.5063C0.03125 17.5188 0.03125 17.5375 0.025 17.55C0.01875 17.5625 0.01875 17.5812 0.0125 17.5938C0.00625 17.6125 0.00625 17.6312 0.00625 17.6437C0.00625 17.6562 0 17.6687 0 17.6812C0 17.7 0 17.7188 0 17.7375C0 17.7437 0 17.75 0 17.7625C0 17.7688 0 17.775 0 17.7812C0 17.7875 0 17.7937 0 17.8C0.01875 20.7312 2.4125 23.1125 5.35 23.1125H7.1125C10.05 23.1125 12.4437 20.7312 12.4625 17.8C12.4625 17.7937 12.4625 17.7875 12.4625 17.7812C12.4625 17.775 12.4625 17.7688 12.4625 17.7625C12.4625 17.7563 12.4625 17.75 12.4625 17.7375C12.4625 17.7188 12.4625 17.7 12.4625 17.6812C12.4625 17.6687 12.4625 17.6562 12.4563 17.6437C12.4563 17.625 12.45 17.6063 12.45 17.5938C12.45 17.5812 12.4438 17.5625 12.4375 17.55C12.4312 17.5375 12.4313 17.5188 12.425 17.5063C12.4187 17.4875 12.4125 17.475 12.4062 17.4562C12.4 17.4437 12.4 17.4313 12.3938 17.4188C12.3875 17.4 12.3812 17.3812 12.3687 17.3625C12.3625 17.3562 12.3625 17.35 12.3625 17.3438L7.75 8.1125H12.5375C12.5625 8.2 12.5875 8.2875 12.6187 8.36875C12.9812 9.39375 13.775 10.1937 14.8062 10.5562C14.8937 10.5875 14.975 10.6125 15.0625 10.6375V23.15C15.0188 23.1562 14.975 23.1625 14.9312 23.175C13.0812 23.55 11.5938 24.8625 10.9688 26.6H10.7063C8.73125 26.6 7.11875 28.2062 7.11875 30.1875V31.0625C7.11875 31.5812 7.5375 32 8.05625 32H23.9438C24.4625 32 24.8813 31.5812 24.8813 31.0625V30.1812C24.8813 28.2062 23.275 26.5938 21.2938 26.5938H21.0312C20.4062 24.8563 18.9188 23.55 17.0688 23.1688C17.025 23.1625 16.9813 23.15 16.9375 23.1437V10.6375C17.025 10.6125 17.1125 10.5875 17.1938 10.5562C18.2188 10.1937 19.0188 9.4 19.3813 8.36875C19.4125 8.28125 19.4375 8.2 19.4625 8.1125H24.25L19.6313 17.3438C19.625 17.35 19.625 17.3562 19.625 17.3625C19.6187 17.3812 19.6063 17.4 19.6 17.4188C19.5938 17.4313 19.5938 17.4437 19.5875 17.4562C19.5812 17.475 19.575 17.4875 19.5688 17.5063C19.5625 17.5188 19.5625 17.5375 19.5562 17.55C19.55 17.5625 19.55 17.5812 19.5438 17.5938C19.5375 17.6125 19.5375 17.6312 19.5375 17.6437C19.5375 17.6562 19.5312 17.6687 19.5312 17.6812C19.5312 17.7 19.5312 17.7188 19.5312 17.7375C19.5312 17.7437 19.5312 17.75 19.5312 17.7625C19.5312 17.7688 19.5312 17.775 19.5312 17.7812C19.5312 17.7875 19.5312 17.7937 19.5312 17.8C19.55 20.7312 21.9438 23.1125 24.8813 23.1125H26.6437C29.5812 23.1125 31.975 20.7312 31.9937 17.8C32 17.8 32 17.7938 32 17.7875ZM29.5438 16.825H21.9875L25.7687 9.26875L29.5438 16.825ZM6.23125 9.26875L10.0125 16.825H2.45625L6.23125 9.26875ZM7.1125 21.2375H5.35C3.75625 21.2375 2.4125 20.1625 2 18.7H10.4563C10.05 20.1625 8.70625 21.2375 7.1125 21.2375ZM23.0063 30.125H8.99375C9.025 29.2062 9.78125 28.4688 10.7 28.4688H11.6687H20.3188H21.2875C22.2188 28.4688 22.975 29.2062 23.0063 30.125ZM18.9625 26.5938H13.0375C13.5312 25.7875 14.3438 25.2063 15.3062 25.0063C15.7625 24.9125 16.2437 24.9125 16.6938 25.0063C17.6562 25.2063 18.4688 25.7875 18.9625 26.5938ZM16.5688 8.7875C16.2 8.91875 15.7937 8.91875 15.4312 8.7875C14.95 8.61875 14.5562 8.225 14.3875 7.74375C14.325 7.5625 14.2875 7.36875 14.2875 7.175C14.2875 6.98125 14.3187 6.7875 14.3875 6.60625C14.5562 6.125 14.95 5.73125 15.4312 5.5625C15.6125 5.5 15.8062 5.4625 16 5.4625C16.1938 5.4625 16.3875 5.49375 16.5688 5.5625C17.05 5.73125 17.4437 6.125 17.6125 6.60625C17.675 6.7875 17.7125 6.98125 17.7125 7.175C17.7125 7.36875 17.6812 7.5625 17.6125 7.74375C17.4437 8.225 17.05 8.61875 16.5688 8.7875ZM26.65 21.2375H24.8875C23.2938 21.2375 21.95 20.1625 21.5375 18.7H29.9937C29.5875 20.1625 28.2437 21.2375 26.65 21.2375Z" fill="white"/>
<path d="M32 17.7875C32 17.7812 32 17.775 32 17.7687C32 17.7625 32 17.7563 32 17.7437C32 17.725 32 17.7062 32 17.6875C32 17.675 32 17.6625 31.9937 17.65C31.9937 17.6313 31.9875 17.6125 31.9875 17.6C31.9875 17.5875 31.9813 17.5688 31.975 17.5562C31.9688 17.5437 31.9688 17.525 31.9625 17.5125C31.9562 17.4938 31.95 17.475 31.9438 17.4625C31.9375 17.45 31.9375 17.4375 31.9312 17.425C31.925 17.4062 31.9125 17.3875 31.9062 17.3687C31.9062 17.3625 31.9 17.3563 31.9 17.35L27.2812 8.11875H29.2938C29.8125 8.11875 30.2313 7.7 30.2313 7.18125C30.2313 6.6625 29.8125 6.24375 29.2938 6.24375H19.4625C19.4375 6.15625 19.4125 6.06875 19.3813 5.9875C19.0188 4.9625 18.225 4.1625 17.1938 3.8C17.1063 3.76875 17.025 3.74375 16.9375 3.71875V0.9375C16.9375 0.41875 16.5187 0 16 0C15.4812 0 15.0625 0.41875 15.0625 0.9375V3.7125C14.975 3.7375 14.8875 3.7625 14.8062 3.79375C13.7812 4.15625 12.9812 4.95 12.6187 5.98125C12.5875 6.06875 12.5625 6.15 12.5375 6.2375H2.7C2.18125 6.2375 1.7625 6.65625 1.7625 7.175C1.7625 7.69375 2.18125 8.1125 2.7 8.1125H4.7125L0.1 17.3438C0.09375 17.35 0.09375 17.3562 0.09375 17.3625C0.0875 17.3812 0.075 17.4 0.06875 17.4188C0.0625 17.4313 0.0625 17.4437 0.05625 17.4562C0.05 17.475 0.04375 17.4875 0.0375 17.5063C0.03125 17.5188 0.03125 17.5375 0.025 17.55C0.01875 17.5625 0.01875 17.5812 0.0125 17.5938C0.00625 17.6125 0.00625 17.6312 0.00625 17.6437C0.00625 17.6562 0 17.6687 0 17.6812C0 17.7 0 17.7188 0 17.7375C0 17.7437 0 17.75 0 17.7625C0 17.7688 0 17.775 0 17.7812C0 17.7875 0 17.7937 0 17.8C0.01875 20.7312 2.4125 23.1125 5.35 23.1125H7.1125C10.05 23.1125 12.4437 20.7312 12.4625 17.8C12.4625 17.7937 12.4625 17.7875 12.4625 17.7812C12.4625 17.775 12.4625 17.7688 12.4625 17.7625C12.4625 17.7563 12.4625 17.75 12.4625 17.7375C12.4625 17.7188 12.4625 17.7 12.4625 17.6812C12.4625 17.6687 12.4625 17.6562 12.4563 17.6437C12.4563 17.625 12.45 17.6063 12.45 17.5938C12.45 17.5812 12.4438 17.5625 12.4375 17.55C12.4312 17.5375 12.4313 17.5188 12.425 17.5063C12.4187 17.4875 12.4125 17.475 12.4062 17.4562C12.4 17.4437 12.4 17.4313 12.3938 17.4188C12.3875 17.4 12.3812 17.3812 12.3687 17.3625C12.3625 17.3562 12.3625 17.35 12.3625 17.3438L7.75 8.1125H12.5375C12.5625 8.2 12.5875 8.2875 12.6187 8.36875C12.9812 9.39375 13.775 10.1937 14.8062 10.5562C14.8937 10.5875 14.975 10.6125 15.0625 10.6375V23.15C15.0188 23.1562 14.975 23.1625 14.9312 23.175C13.0812 23.55 11.5938 24.8625 10.9688 26.6H10.7063C8.73125 26.6 7.11875 28.2062 7.11875 30.1875V31.0625C7.11875 31.5812 7.5375 32 8.05625 32H23.9438C24.4625 32 24.8813 31.5812 24.8813 31.0625V30.1812C24.8813 28.2062 23.275 26.5938 21.2938 26.5938H21.0312C20.4062 24.8563 18.9188 23.55 17.0688 23.1688C17.025 23.1625 16.9813 23.15 16.9375 23.1437V10.6375C17.025 10.6125 17.1125 10.5875 17.1938 10.5562C18.2188 10.1937 19.0188 9.4 19.3813 8.36875C19.4125 8.28125 19.4375 8.2 19.4625 8.1125H24.25L19.6313 17.3438C19.625 17.35 19.625 17.3562 19.625 17.3625C19.6187 17.3812 19.6063 17.4 19.6 17.4188C19.5938 17.4313 19.5938 17.4437 19.5875 17.4562C19.5812 17.475 19.575 17.4875 19.5688 17.5063C19.5625 17.5188 19.5625 17.5375 19.5562 17.55C19.55 17.5625 19.55 17.5812 19.5438 17.5938C19.5375 17.6125 19.5375 17.6312 19.5375 17.6437C19.5375 17.6562 19.5312 17.6687 19.5312 17.6812C19.5312 17.7 19.5312 17.7188 19.5312 17.7375C19.5312 17.7437 19.5312 17.75 19.5312 17.7625C19.5312 17.7688 19.5312 17.775 19.5312 17.7812C19.5312 17.7875 19.5312 17.7937 19.5312 17.8C19.55 20.7312 21.9438 23.1125 24.8813 23.1125H26.6437C29.5812 23.1125 31.975 20.7312 31.9937 17.8C32 17.8 32 17.7938 32 17.7875ZM29.5438 16.825H21.9875L25.7687 9.26875L29.5438 16.825ZM6.23125 9.26875L10.0125 16.825H2.45625L6.23125 9.26875ZM7.1125 21.2375H5.35C3.75625 21.2375 2.4125 20.1625 2 18.7H10.4563C10.05 20.1625 8.70625 21.2375 7.1125 21.2375ZM23.0063 30.125H8.99375C9.025 29.2062 9.78125 28.4688 10.7 28.4688H11.6687H20.3188H21.2875C22.2188 28.4688 22.975 29.2062 23.0063 30.125ZM18.9625 26.5938H13.0375C13.5312 25.7875 14.3438 25.2063 15.3062 25.0063C15.7625 24.9125 16.2437 24.9125 16.6938 25.0063C17.6562 25.2063 18.4688 25.7875 18.9625 26.5938ZM16.5688 8.7875C16.2 8.91875 15.7937 8.91875 15.4312 8.7875C14.95 8.61875 14.5562 8.225 14.3875 7.74375C14.325 7.5625 14.2875 7.36875 14.2875 7.175C14.2875 6.98125 14.3187 6.7875 14.3875 6.60625C14.5562 6.125 14.95 5.73125 15.4312 5.5625C15.6125 5.5 15.8062 5.4625 16 5.4625C16.1938 5.4625 16.3875 5.49375 16.5688 5.5625C17.05 5.73125 17.4437 6.125 17.6125 6.60625C17.675 6.7875 17.7125 6.98125 17.7125 7.175C17.7125 7.36875 17.6812 7.5625 17.6125 7.74375C17.4437 8.225 17.05 8.61875 16.5688 8.7875ZM26.65 21.2375H24.8875C23.2938 21.2375 21.95 20.1625 21.5375 18.7H29.9937C29.5875 20.1625 28.2437 21.2375 26.65 21.2375Z" fill="black" fill-opacity="0.75"/>
</svg>
