<svg width="38" height="38" viewBox="0 0 38 38" fill="none" xmlns="http://www.w3.org/2000/svg">
<g clip-path="url(#clip0_201_11)">
<path d="M38.0002 19C38.0002 25.273 32.9335 30.4 26.6002 30.4C20.3272 30.4 15.2002 25.273 15.2002 19C15.2002 12.727 20.2669 7.59998 26.5399 7.59998C32.9335 7.59998 38.0002 12.727 38.0002 19Z" fill="#FFB600"/>
<path d="M22.1364 22.6795H15.8634C15.984 23.1017 16.165 23.5239 16.3459 23.8858H21.7142C21.5332 24.3081 21.2919 24.7303 21.0507 25.0922H17.0094C17.2507 25.4541 17.5523 25.8763 17.8539 26.2382H20.2062C19.8443 26.6604 19.4824 27.0827 19.0602 27.4446C17.0094 29.2541 14.3554 30.4001 11.3999 30.4001H11.3697C11.3396 30.4001 11.3094 30.4001 11.2868 30.4001C5.02885 30.3549 -0.0302734 25.2656 -0.0302734 19.0001C-0.0302734 12.81 4.90068 7.77354 11.0531 7.60767C11.0606 7.60767 11.0681 7.60767 11.0757 7.60767C11.1209 7.60767 11.1586 7.60767 11.2039 7.60767C11.2114 7.60767 11.2189 7.60767 11.2265 7.60767C11.2566 7.60767 11.2868 7.60767 11.3169 7.60767C11.332 7.60767 11.3546 7.60767 11.3697 7.60767C13.5035 7.63029 15.5015 8.44457 15.5015 8.44457C17.1677 9.12314 18.3213 10.0505 18.9999 10.6839C18.5777 11.0458 18.2158 11.4077 17.8539 11.8299H20.0856C20.4475 12.1918 20.7491 12.614 20.9904 13.0362H16.9491C16.7078 13.4585 16.4666 13.8204 16.2856 14.2426H21.5935C21.7745 14.6045 21.9554 15.0267 22.0761 15.4489H15.8031C15.6824 15.8712 15.5618 16.2331 15.5015 16.6553H22.4983C22.6189 17.4394 22.7396 18.2235 22.7396 19.068C22.7396 20.3271 22.4983 21.5335 22.1364 22.6795Z" fill="#FF5050"/>
<path d="M15.4411 21.8952L15.6221 20.8698C15.5617 20.8698 15.4411 20.9301 15.3205 20.9301C14.8982 20.9301 14.8379 20.6889 14.8982 20.5682L15.2601 18.4571H15.9236L16.1046 17.3111H15.5014L15.6221 16.5873H14.4157C14.4157 16.5873 13.6919 20.5682 13.6919 21.0508C13.6919 21.7746 14.1141 22.0762 14.657 22.0762C15.0189 22.0762 15.3205 21.9555 15.4411 21.8952Z" fill="white"/>
<path d="M15.8633 19.9651C15.8633 21.654 17.0093 22.0762 17.9744 22.0762C18.8792 22.0762 19.2411 21.8952 19.2411 21.8952L19.4823 20.7492C19.4823 20.7492 18.8188 21.0508 18.2157 21.0508C16.8887 21.0508 17.1299 20.0857 17.1299 20.0857H19.603C19.603 20.0857 19.7839 19.3016 19.7839 19C19.7839 18.2159 19.3617 17.2508 18.0347 17.2508C16.768 17.1302 15.8633 18.4571 15.8633 19.9651ZM17.9744 18.2159C18.6379 18.2159 18.5173 19 18.5173 19.0603H17.1903C17.1903 19 17.3109 18.2159 17.9744 18.2159Z" fill="white"/>
<path d="M25.6348 21.8951L25.8761 20.5682C25.8761 20.5682 25.2729 20.8698 24.8507 20.8698C24.0063 20.8698 23.6444 20.2063 23.6444 19.4825C23.6444 18.0348 24.3682 17.2507 25.2126 17.2507C25.8158 17.2507 26.2983 17.6126 26.2983 17.6126L26.4793 16.346C26.4793 16.346 25.7555 16.0444 25.092 16.0444C23.7047 16.0444 22.3174 17.2507 22.3174 19.5428C22.3174 21.0507 23.0412 22.0761 24.4888 22.0761C24.9713 22.0761 25.6348 21.8951 25.6348 21.8951Z" fill="white"/>
<path d="M8.80622 17.1302C7.96178 17.1302 7.3586 17.3715 7.3586 17.3715L7.17765 18.3969C7.17765 18.3969 7.72051 18.1556 8.50463 18.1556C8.92685 18.1556 9.28876 18.2159 9.28876 18.5778C9.28876 18.8191 9.22844 18.8794 9.22844 18.8794C9.22844 18.8794 8.86654 18.8794 8.68558 18.8794C7.66019 18.8794 6.51416 19.3016 6.51416 20.6889C6.51416 21.7746 7.23797 22.0159 7.66019 22.0159C8.50463 22.0159 8.86654 21.473 8.92685 21.473L8.86654 21.9556H9.95225L10.4348 18.6381C10.4348 17.1905 9.22844 17.1302 8.80622 17.1302ZM9.04749 19.8445C9.04749 20.0254 8.92685 20.9905 8.20305 20.9905C7.84114 20.9905 7.72051 20.6889 7.72051 20.508C7.72051 20.2064 7.90146 19.7841 8.80622 19.7841C8.98717 19.8445 9.04749 19.8445 9.04749 19.8445Z" fill="white"/>
<path d="M11.5807 22.0157C11.8822 22.0157 13.3902 22.076 13.3902 20.4474C13.3902 18.9395 11.9426 19.2411 11.9426 18.6379C11.9426 18.3363 12.1838 18.2157 12.6061 18.2157C12.787 18.2157 13.4505 18.276 13.4505 18.276L13.6315 17.1903C13.6315 17.1903 13.2092 17.0696 12.4854 17.0696C11.5807 17.0696 10.6759 17.4315 10.6759 18.6379C10.6759 20.0252 12.1838 19.9046 12.1838 20.4474C12.1838 20.8093 11.7616 20.8696 11.46 20.8696C10.9172 20.8696 10.3743 20.6887 10.3743 20.6887L10.1934 21.7744C10.2537 21.895 10.5553 22.0157 11.5807 22.0157Z" fill="white"/>
<path d="M35.6471 16.1649L35.4058 17.7935C35.4058 17.7935 34.9233 17.1903 34.2598 17.1903C33.1741 17.1903 32.209 18.5173 32.209 20.0856C32.209 21.0506 32.6915 22.076 33.7169 22.076C34.4407 22.076 34.8629 21.5935 34.8629 21.5935L34.8026 22.0157H36.009L36.9137 16.2252L35.6471 16.1649ZM35.1042 19.3617C35.1042 20.0252 34.8026 20.8697 34.1391 20.8697C33.7169 20.8697 33.4756 20.5078 33.4756 19.9046C33.4756 18.9395 33.8979 18.3363 34.4407 18.3363C34.8629 18.3363 35.1042 18.6379 35.1042 19.3617Z" fill="white"/>
<path d="M2.23148 21.9554L2.95529 17.6125L3.07593 21.9554H3.92037L5.48862 17.6125L4.82513 21.9554H6.0918L7.05688 16.1649H5.0664L3.86005 19.7237L3.79974 16.1649H2.05053L1.08545 21.9554H2.23148Z" fill="white"/>
<path d="M20.93 21.9555C21.2919 19.965 21.3522 18.3364 22.1967 18.638C22.3173 17.8539 22.4983 17.5523 22.6189 17.2507C22.6189 17.2507 22.5586 17.2507 22.3776 17.2507C21.8348 17.2507 21.4125 17.9745 21.4125 17.9745L21.5332 17.311H20.3872L19.603 22.0158H20.93V21.9555Z" fill="white"/>
<path d="M28.4093 17.1302C27.5648 17.1302 26.9616 17.3715 26.9616 17.3715L26.7807 18.3969C26.7807 18.3969 27.3235 18.1556 28.1077 18.1556C28.5299 18.1556 28.8918 18.2159 28.8918 18.5778C28.8918 18.8191 28.8315 18.8794 28.8315 18.8794C28.8315 18.8794 28.4696 18.8794 28.2886 18.8794C27.2632 18.8794 26.1172 19.3016 26.1172 20.6889C26.1172 21.7746 26.841 22.0159 27.2632 22.0159C28.1077 22.0159 28.4696 21.473 28.5299 21.473L28.4696 21.9556H29.5553L30.0378 18.6381C30.0981 17.1905 28.8315 17.1302 28.4093 17.1302ZM28.7108 19.8445C28.7108 20.0254 28.5902 20.9905 27.8664 20.9905C27.5045 20.9905 27.3839 20.6889 27.3839 20.508C27.3839 20.2064 27.5648 19.7841 28.4696 19.7841C28.6505 19.8445 28.6505 19.8445 28.7108 19.8445Z" fill="white"/>
<path d="M31.0633 21.9555C31.4252 19.965 31.4855 18.3364 32.33 18.638C32.4506 17.8539 32.6316 17.5523 32.7522 17.2507C32.7522 17.2507 32.6919 17.2507 32.5109 17.2507C31.9681 17.2507 31.5459 17.9745 31.5459 17.9745L31.6665 17.311H30.5205L29.7363 22.0158H31.0633V21.9555Z" fill="white"/>
</g>
<defs>
<clipPath id="clip0_201_11">
<rect width="38" height="38" fill="white"/>
</clipPath>
</defs>
</svg>
