<svg width="38" height="38" viewBox="0 0 38 38" fill="none" xmlns="http://www.w3.org/2000/svg">
<path fill-rule="evenodd" clip-rule="evenodd" d="M3.51055 13.8194C3.85195 13.8194 4.86133 13.7229 5.28437 15.1702C5.57383 16.1425 6.03398 17.7308 6.65742 19.9425H6.91719C7.59258 17.612 8.05273 16.0163 8.30508 15.1702C8.73555 13.7155 9.81914 13.8194 10.2496 13.8194H13.582V24.1804H10.1828V18.0722H9.95273L8.06016 24.1804H5.51445L3.62188 18.0648H3.3918V24.1804H0V13.8194H3.51055ZM18.4656 13.8194V19.9351H18.7328L21.0336 14.9105C21.4789 13.9085 22.4363 13.8269 22.4363 13.8269H25.7242V24.1878H22.2582V18.0722H21.991L19.7348 23.0968C19.2895 24.0913 18.2875 24.1804 18.2875 24.1804H14.9996V13.8194H18.4656ZM37.7031 18.7476C37.2207 20.1206 35.6992 21.1003 34.0219 21.1003H30.3852V24.1878H27.0898V18.7476H37.7031Z" fill="#0F754E"/>
<path fill-rule="evenodd" clip-rule="evenodd" d="M34.1776 13.8193H26.9116C27.0823 16.1275 29.0714 18.1018 31.1272 18.1018H37.9257C38.3265 16.1869 36.9757 13.8193 34.1776 13.8193Z" fill="url(#paint0_linear_201_29)"/>
<defs>
<linearGradient id="paint0_linear_201_29" x1="37.9999" y1="15.9605" x2="26.9157" y2="15.9605" gradientUnits="userSpaceOnUse">
<stop stop-color="#1F5CD7"/>
<stop offset="1" stop-color="#02AEFF"/>
</linearGradient>
</defs>
</svg>
