<svg width="38" height="38" viewBox="0 0 38 38" fill="none" xmlns="http://www.w3.org/2000/svg">
<path d="M13.9333 24.4586L15.8634 13.6015H18.8793L17.0095 24.4586H13.9333ZM27.9269 13.7221C27.3237 13.4808 26.3587 13.2396 25.1523 13.2396C22.1364 13.2396 19.965 14.7475 19.965 16.9189C19.965 18.5475 21.4729 19.3919 22.6793 19.9348C23.8856 20.4777 24.2475 20.8396 24.2475 21.3221C24.2475 22.0459 23.2825 22.4078 22.438 22.4078C21.2317 22.4078 20.5682 22.2269 19.5428 21.8046L19.1206 21.6237L18.6983 24.0967C19.4222 24.3983 20.7491 24.6999 22.1364 24.6999C25.3333 24.6999 27.4444 23.1919 27.4444 20.8999C27.4444 19.6332 26.6602 18.6681 24.8507 17.884C23.765 17.3411 23.1015 17.0396 23.1015 16.4967C23.1015 16.0142 23.6444 15.5316 24.8507 15.5316C25.8761 15.5316 26.5999 15.7126 27.1428 15.9538L27.4444 16.0745L27.9269 13.7221ZM33.1142 13.6015C32.3904 13.6015 31.8475 13.6618 31.546 14.3856L27.0221 24.4586H30.2793L30.8825 22.6491H34.7428L35.1047 24.4586H37.9999L35.4666 13.6015H33.1142ZM31.7269 20.8396C31.9079 20.2967 32.9333 17.6427 32.9333 17.6427C32.9333 17.6427 33.1745 16.9792 33.3555 16.557L33.5364 17.5824C33.5364 17.5824 34.1396 20.2967 34.2602 20.8999H31.7269V20.8396ZM11.4602 13.6618L8.38406 21.2015L8.08247 19.6332C7.38882 17.8011 5.94874 16.1574 3.89795 15.0038L6.57454 24.5189H9.83168L14.7174 13.6618H11.4602Z" fill="#293688"/>
<path d="M8.08254 19.6334L6.99683 14.5064C6.81587 13.7826 6.27302 13.6017 5.60952 13.6017H0L0.542857 13.7223C1.79444 14.0164 2.91786 14.4537 3.89802 15.0041C5.94881 16.1576 7.38889 17.8013 8.08254 19.6334Z" fill="#F7981D"/>
</svg>
