<svg width="24" height="24" viewBox="0 0 24 24" fill="none" xmlns="http://www.w3.org/2000/svg">
<path d="M16.8609 0H7.13906C3.17813 0 0 3.17813 0 7.13906V16.8609C0 20.8219 3.17813 24 7.13906 24H16.8609C20.8219 24 24 20.8219 24 16.8609V7.13906C24 3.23906 20.8219 0 16.8609 0ZM21.6 16.8609C21.6 19.5 19.5 21.6 16.8609 21.6H7.13906C4.5 21.6 2.4 19.5 2.4 16.8609V7.13906C2.4 4.5 4.5 2.4 7.13906 2.4H16.8609C19.5 2.4 21.6 4.5 21.6 7.13906V16.8609ZM12 5.82187C8.57812 5.82187 5.82187 8.58281 5.82187 12C5.82187 15.4172 8.57812 18.1781 12 18.1781C15.4219 18.1781 18.1781 15.4172 18.1781 12C18.1781 8.58281 15.4219 5.82187 12 5.82187ZM12 15.8391C9.9 15.8391 8.22187 14.1609 8.22187 12.0609C8.22187 9.96094 9.9 8.28281 12 8.28281C14.1 8.28281 15.7781 9.96094 15.7781 12.0609C15.7781 14.1 14.1 15.8391 12 15.8391ZM18.2391 4.37813C19.0688 4.37813 19.7391 5.04844 19.7391 5.87813C19.7391 6.70781 19.0688 7.37812 18.2391 7.37812C17.4094 7.37812 16.7391 6.70781 16.7391 5.87813C16.7391 5.04844 17.4094 4.37813 18.2391 4.37813Z" fill="#E4F1F3"/>
</svg>
