<svg width="24" height="24" viewBox="0 0 24 24" fill="none" xmlns="http://www.w3.org/2000/svg">
<path d="M23.3156 18.8063H19.8187C18.9 18.8719 18.1875 18.5344 17.5781 17.8875C17.1046 17.3766 16.6593 16.8703 16.1859 16.3594C15.9843 16.1578 15.7781 15.9516 15.539 15.8156C15.0656 15.5109 14.6578 15.6141 14.3859 16.0875C14.114 16.5984 14.0484 17.1422 14.0109 17.7188C13.9781 18.5344 13.739 18.7734 12.8906 18.8063C11.1234 18.8719 9.45933 18.6375 7.89839 17.7188C6.53902 16.9359 5.45152 15.8156 4.53745 14.5594C2.73276 12.1125 1.34058 9.43125 0.11714 6.64688C-0.154735 6.0375 0.0515147 5.69531 0.726515 5.6625C1.87964 5.62969 2.99995 5.62969 4.15776 5.6625C4.6312 5.6625 4.94058 5.93438 5.10933 6.375C5.7187 7.90312 6.4687 9.32812 7.42027 10.6875C7.65933 11.025 7.9312 11.4 8.30152 11.6391C8.70933 11.9109 9.01402 11.8078 9.22027 11.3672C9.3562 11.0953 9.38902 10.7578 9.42183 10.4484C9.52495 9.39375 9.52495 8.34375 9.3562 7.28906C9.25308 6.64219 8.88277 6.20156 8.23589 6.09844C7.89839 6.03281 7.96402 5.89687 8.09995 5.72344C8.37183 5.38594 8.6437 5.17969 9.18745 5.17969H13.125C13.7343 5.31563 13.8703 5.5875 13.9734 6.19687V10.5797C13.9734 10.8187 14.1093 11.5313 14.5171 11.7C14.8546 11.8031 15.0937 11.5313 15.3 11.325C16.2515 10.3078 16.9312 9.11719 17.5406 7.89375C17.8125 7.35 18.0515 6.80625 18.2531 6.22969C18.4218 5.82187 18.6937 5.62031 19.1343 5.62031H22.9406C23.0437 5.62031 23.1796 5.62031 23.2781 5.65312C23.925 5.75625 24.0937 6.02813 23.8875 6.67031C23.5828 7.65469 22.9687 8.47031 22.3593 9.28594C21.7125 10.1672 21.0328 11.0203 20.4234 11.9016C19.9125 12.7172 19.95 13.125 20.6625 13.8375C21.4453 14.6203 22.2937 15.3328 23.0062 16.2141C23.3109 16.5891 23.6156 16.9969 23.8546 17.4375C24.1968 18.0562 23.8921 18.7688 23.3156 18.8063Z" fill="#E4F1F3"/>
</svg>
