<svg width="24" height="24" viewBox="0 0 24 24" fill="none" xmlns="http://www.w3.org/2000/svg">
<g clip-path="url(#clip0_201_8)">
<path d="M23.7797 6.80627C23.7797 6.80627 23.5219 5.02034 22.8328 4.23752C21.9188 3.20159 20.8781 3.20159 20.4281 3.15471C17.0625 2.91565 12.0187 2.86877 12.0187 2.86877C12.0187 2.86877 10.7578 2.88284 9.075 2.92971C7.39219 2.95784 5.29219 3.03284 3.60938 3.15471C3.15937 3.20159 2.12344 3.24377 1.20469 4.23752C0.473438 5.01565 0.2625 6.80627 0.2625 6.80627C0.2625 6.80627 0.0234375 8.92502 0.0234375 11.025V12.9797C0.0234375 15.0844 0.2625 17.1563 0.2625 17.1563C0.2625 17.1563 0.515625 18.9375 1.20937 19.7203C2.12344 20.7563 3.32812 20.7094 3.86719 20.8453C5.775 21.0422 12.0234 21.0844 12.0234 21.0844C12.0234 21.0844 17.0719 21.0844 20.4328 20.7985C20.8828 20.7516 21.9188 20.7094 22.8375 19.7156C23.5266 18.9328 23.7844 17.1469 23.7844 17.1469C23.7844 17.1469 24.0234 15.0422 24.0234 12.9703V11.0156C24.0234 8.92034 23.7797 6.80627 23.7797 6.80627ZM9.12188 16.7766V7.79534L16.9922 12.3891L9.12188 16.7766Z" fill="#E4F1F3"/>
</g>
<defs>
<clipPath id="clip0_201_8">
<rect width="24" height="24" fill="white"/>
</clipPath>
</defs>
</svg>
