<svg width="24" height="24" viewBox="0 0 24 24" fill="none" xmlns="http://www.w3.org/2000/svg">
<path d="M14.3143 14.3143C12.4286 16.26 12.3 18.6857 12.1286 24C17.0829 24 20.5029 23.9829 22.2686 22.2686C23.9829 20.5029 24 16.92 24 12.1286C18.6857 12.3 16.26 12.4286 14.3143 14.3143Z" fill="#E4F1F3"/>
<path d="M11.8714 24C6.91714 24 3.49714 23.9829 1.73143 22.2686C0.0171428 20.5029 0 16.92 0 12.1286C5.31429 12.3 7.74 12.4286 9.68571 14.3143C11.5714 16.26 11.7 18.6857 11.8714 24Z" fill="#E4F1F3"/>
<path d="M9.68571 9.68571C7.74 11.5714 5.31429 11.7 0 11.8714C0 7.08 0.0171428 3.49714 1.73143 1.73143C3.49714 0.0171428 6.92571 0 11.8714 0C11.7 5.31429 11.5714 7.74 9.68571 9.68571Z" fill="#E4F1F3"/>
<path d="M12.1286 0C12.2914 5.31429 12.4286 7.74 14.3143 9.68571C16.26 11.5714 18.6857 11.7 24 11.8714C24 7.08 23.9829 3.49714 22.2686 1.73143C20.5029 0.0171428 17.0829 0 12.1286 0Z" fill="#E4F1F3"/>
</svg>
