<svg width="170" height="36" viewBox="0 0 170 36" fill="none" xmlns="http://www.w3.org/2000/svg">
<g clip-path="url(#clip0_2680_2821)">
<path fill-rule="evenodd" clip-rule="evenodd" d="M33.9537 6.20459H34.8481L41.9701 24.3871C42.2682 25.117 42.8313 25.482 43.7257 25.482H44.3551V26.4774H36.4381V25.482H37.0675C37.8956 25.482 38.4588 25.3825 38.8231 25.2166C39.055 25.0839 39.1875 24.8848 39.1875 24.6525C39.1875 24.4866 39.1544 24.3207 39.0881 24.1548L37.4319 19.9078H29.5811L28.6536 22.3299C28.4217 22.9604 28.2892 23.4912 28.2892 23.8562C28.2892 24.2875 28.488 24.6525 28.9186 24.9843C29.3161 25.2829 29.9124 25.4488 30.7074 25.4488H31.3699V26.4442H24.1817V25.4488C24.9436 25.4488 25.5729 25.2829 26.0036 24.9511C26.4342 24.6193 26.8648 23.9889 27.2292 23.0267L33.9537 6.20459ZM33.5562 10.0203L30.0118 18.8792H37.0344L33.5562 10.0203ZM24.3804 28.9991H44.2226V30.2599H24.3804V28.9991ZM44.852 26.4774V25.482H46.177C46.9389 25.482 47.3033 25.0839 47.3033 24.3207V15.7604C47.3033 15.1963 46.972 14.8977 46.3426 14.8977H44.9182V13.9023H51.974C53.2658 13.9023 54.2265 13.9686 54.889 14.1345C55.5184 14.3004 56.0815 14.6322 56.5121 15.1631C56.9428 15.6608 57.1747 16.2912 57.1747 17.0212C57.1747 17.917 56.8103 18.647 56.0815 19.1447C55.3528 19.6756 54.5577 19.941 53.6634 20.0074C56.3465 20.3723 57.7047 21.4673 57.7047 23.259C57.7047 25.4157 55.949 26.5106 52.4708 26.5106H44.852V26.4774ZM49.5889 19.5428H51.4439C53.6302 19.5428 54.7234 18.7797 54.7234 17.2866C54.7234 15.7272 53.7296 14.9309 51.7421 14.9309H50.9471C50.0196 14.9309 49.5889 15.2958 49.5889 16.059V19.5428ZM49.5889 20.5382V24.3539C49.5889 24.7521 49.6552 25.0507 49.8539 25.2498C50.0196 25.4157 50.3177 25.5152 50.7483 25.5152H51.8415C53.2327 25.5152 54.1602 25.3161 54.5577 24.8516C54.9552 24.4203 55.154 23.8562 55.154 23.1594C55.154 21.4009 54.0609 20.5382 51.9077 20.5382H49.5889ZM44.2226 28.9991V30.2599H58.9634V28.9991H44.2226ZM60.2885 18.3815H59.2947L59.5928 13.9023H71.7167L72.0149 18.3815H71.0211C70.723 16.8553 70.3586 15.8931 69.8617 15.4949C69.398 15.0968 68.8017 14.8977 68.1061 14.8977H66.6817V24.5862C66.6817 25.1834 67.0129 25.482 67.6754 25.482H69.0998V26.4774H61.9447V25.482H63.2697C64.0316 25.482 64.4291 25.117 64.4291 24.3539V14.8977H63.1704C62.3754 14.8977 61.746 15.1299 61.3153 15.5945C60.8847 16.059 60.5535 16.988 60.2885 18.3815ZM58.9634 28.9991H72.3461V30.2599H58.9634V28.9991ZM79.17 13.5041C80.8594 13.5041 82.2838 14.1014 83.4432 15.329C84.6026 16.5567 85.1657 18.1493 85.1657 20.1733C85.1657 21.5668 84.9007 22.7281 84.4038 23.6903C83.9069 24.6525 83.145 25.4157 82.2175 25.9797C81.2569 26.5438 80.23 26.8424 79.1369 26.8424C77.5137 26.8424 76.1224 26.212 74.9962 24.9843C73.8699 23.7567 73.3068 22.1309 73.3068 20.1733C73.3068 18.1825 73.8699 16.5898 74.9962 15.3622C76.1224 14.1345 77.5137 13.5041 79.17 13.5041ZM79.17 14.4663C78.1762 14.4663 77.3481 14.9309 76.6856 15.8267C76.0562 16.7226 75.7249 18.1825 75.7249 20.1401C75.7249 22.1309 76.0562 23.5908 76.6856 24.5198C77.315 25.4488 78.1431 25.9133 79.17 25.9133C80.23 25.9133 81.0581 25.4488 81.7206 24.5198C82.3832 23.5908 82.6813 22.0977 82.6813 20.0074C82.6813 18.0498 82.35 16.6562 81.7206 15.7935C81.0913 14.8977 80.23 14.4663 79.17 14.4663ZM72.3461 28.9991V30.2599H86.0932V28.9991H72.3461ZM91.4595 19.3106H93.8446C94.1758 17.3198 94.9046 15.8599 95.9646 14.8977C97.0577 13.9686 98.3165 13.5041 99.7078 13.5041C101.331 13.5041 102.755 14.1014 103.915 15.2958C105.107 16.4903 105.703 18.1161 105.703 20.2064C105.703 22.3299 105.107 23.9557 103.882 25.117C102.656 26.2783 101.265 26.8424 99.7078 26.8424C98.2171 26.8424 96.9252 26.3447 95.8321 25.3161C94.7058 24.3207 94.0433 22.6949 93.8114 20.4387H91.4264V24.5198C91.4264 25.117 91.7577 25.4157 92.4202 25.4157H93.8114V26.411H86.6895V25.4157H88.0145C88.7764 25.4157 89.1408 25.0507 89.1408 24.2875V15.7935C89.1408 15.1963 88.8095 14.8977 88.147 14.8977H86.6895V13.9023H93.8777V14.8977H92.5527C91.7908 14.8977 91.4264 15.2627 91.4264 16.0258V19.3106H91.4595ZM103.252 19.9742C103.252 17.917 102.921 16.4903 102.225 15.6608C101.563 14.8645 100.702 14.4332 99.7409 14.4332C98.6478 14.4332 97.7865 14.9309 97.1902 15.9262C96.594 16.9216 96.2959 18.3152 96.2959 20.1069C96.2959 22.0313 96.594 23.458 97.2234 24.4203C97.8528 25.3825 98.6809 25.8802 99.7409 25.8802C102.06 25.9133 103.252 23.9226 103.252 19.9742ZM86.0932 28.9991H106.631V30.2599H86.0932V28.9991ZM111.5 13.67C111.699 14.5991 111.832 15.5281 111.865 16.3908C112.494 15.3954 113.124 14.6986 113.819 14.3004C114.515 13.9023 115.244 13.67 116.039 13.67C116.9 13.67 117.728 13.9355 118.49 14.4663C119.285 14.9972 119.914 15.7604 120.411 16.7889C120.908 17.8175 121.14 18.9456 121.14 20.2396C121.14 22.2968 120.544 23.9557 119.351 25.2498C118.357 26.3115 117.165 26.8756 115.774 26.8756C114.979 26.8756 114.283 26.6765 113.654 26.2783C113.024 25.8802 112.461 25.2829 111.964 24.4866V29.5299C111.964 29.9281 112.064 30.1935 112.262 30.3594C112.494 30.5585 112.825 30.6912 113.256 30.6912H114.184V31.6534H107.492V30.6912H108.42C108.85 30.6912 109.182 30.5917 109.38 30.4258C109.612 30.2599 109.712 30.0276 109.712 29.7622V16.5235C109.712 15.8931 109.579 15.4617 109.281 15.1963C108.983 14.9309 108.387 14.7981 107.525 14.765V13.8691L111.5 13.67ZM115.409 14.8977C114.449 14.8977 113.62 15.3622 112.925 16.2912C112.262 17.2203 111.898 18.5806 111.898 20.3723C111.898 22.164 112.229 23.4912 112.892 24.3539C113.554 25.2166 114.382 25.6479 115.376 25.6479C116.337 25.6479 117.066 25.2829 117.562 24.553C118.225 23.5908 118.556 22.164 118.556 20.306C118.556 18.3484 118.258 16.9548 117.662 16.1253C117.099 15.2958 116.337 14.8977 115.409 14.8977ZM106.631 28.9991V30.2599H122.399V28.9991H106.631ZM134.125 16.0258V15.4949C134.059 15.0968 133.728 14.8645 133.165 14.8645H131.74V13.8691H138.796V14.8645H137.537C136.775 14.8645 136.411 15.2295 136.411 15.9926V24.5198C136.411 25.117 136.742 25.4157 137.405 25.4157H138.829V26.411H131.674V25.4157H132.999C133.761 25.4157 134.125 25.0507 134.125 24.2875V17.4525L127.798 24.0885V24.553C127.798 25.1502 128.129 25.4488 128.759 25.4488H130.216V26.4442H123.061V25.4488H124.386C125.148 25.4488 125.513 25.0839 125.513 24.3207V15.7935C125.513 15.1963 125.181 14.8977 124.552 14.8977H123.128V13.9023H130.216V14.8977H128.924C128.163 14.8977 127.798 15.2627 127.798 16.0258V22.7281L134.125 16.0258ZM122.399 28.9991H139.458V30.2599H122.432V28.9991H122.399ZM149.959 22.7613L150.82 23.0267C150.125 25.6147 148.601 26.8756 146.216 26.8756C144.46 26.8756 143.036 26.3115 141.943 25.1502C140.85 23.9889 140.287 22.4627 140.287 20.5382C140.287 18.3152 140.883 16.5898 142.108 15.3622C143.334 14.1345 144.758 13.5373 146.415 13.5373C147.64 13.5373 148.667 13.8691 149.462 14.5659C150.257 15.2627 150.655 15.9926 150.655 16.8553C150.655 17.353 150.522 17.7843 150.191 18.0829C149.893 18.4147 149.529 18.5806 149.131 18.5806C148.734 18.5806 148.402 18.4479 148.104 18.1493C147.839 17.8839 147.673 17.5189 147.673 17.1539C147.673 16.7557 147.839 16.3908 148.137 16.0258C148.27 15.8599 148.336 15.7272 148.336 15.6276C148.336 15.3622 148.17 15.1299 147.806 14.8645C147.442 14.6322 146.978 14.4995 146.382 14.4995C145.288 14.4995 144.46 14.8977 143.897 15.694C143.102 16.8553 142.705 18.3815 142.705 20.2728C142.705 22.0645 143.069 23.4249 143.765 24.3539C144.493 25.2829 145.388 25.7474 146.514 25.7474C148.071 25.7143 149.23 24.7189 149.959 22.7613ZM139.458 28.9991V30.2599H151.649V28.9991H139.458ZM152.841 6.60275H168.94L169.338 14.1014H168.41C167.814 9.68846 166.224 7.46542 163.64 7.46542C163.11 7.46542 162.779 7.56496 162.58 7.73086C162.381 7.89676 162.282 8.19537 162.282 8.62671V24.5198C162.282 24.8516 162.381 25.0839 162.58 25.2166C162.779 25.3825 163.077 25.4488 163.507 25.4488H165.495V26.4442H156.286V25.4488H158.572C158.87 25.4488 159.102 25.3825 159.267 25.2166C159.433 25.0507 159.499 24.8516 159.499 24.6193V8.52717C159.499 8.19537 159.4 7.92994 159.201 7.76404C159.002 7.59814 158.671 7.4986 158.207 7.4986C156.915 7.4986 155.822 8.12901 154.961 9.35666C154.232 10.3521 153.735 11.9779 153.404 14.1345H152.41L152.841 6.60275ZM151.649 28.9991H169.967V30.2599H151.649V28.9991Z" fill="black"/>
<path fill-rule="evenodd" clip-rule="evenodd" d="M12.0246 26.5106H16.4634V32.4829H169.967V35.9336H12.0246V35.3695V32.4829V26.5106Z" fill="#FFED00" stroke="#FFED00" stroke-width="0.216" stroke-miterlimit="22.9256"/>
<path fill-rule="evenodd" clip-rule="evenodd" d="M0.298188 13.5041L13.4821 0.298592C13.8134 -0.0332057 14.4096 -0.0332057 14.7409 0.298592L27.9248 13.5041C28.2561 13.8359 28.2561 14.4332 27.9248 14.765L14.7409 27.9705C14.4096 28.3023 13.8134 28.3023 13.4821 27.9705L0.298188 14.765C-0.0661927 14.4332 -0.0661927 13.8359 0.298188 13.5041Z" fill="white" stroke="black" stroke-width="0.216" stroke-miterlimit="22.9256"/>
<path fill-rule="evenodd" clip-rule="evenodd" d="M4.86947 13.7032L13.6808 4.87739C13.9127 4.64514 14.2771 4.64514 14.509 4.87739L23.3204 13.7032C23.5522 13.9355 23.5522 14.3004 23.3204 14.5327L14.5421 23.3917C14.3102 23.6239 13.9459 23.6239 13.714 23.3917L4.86947 14.5659C4.63759 14.3336 4.63759 13.9355 4.86947 13.7032Z" fill="#FFED00" stroke="black" stroke-width="0.216" stroke-miterlimit="22.9256"/>
<path d="M48.2078 9.18895L48.7318 9.05277C48.7715 9.25515 48.8772 9.45752 49.049 9.6599C49.2228 9.86227 49.4522 9.96346 49.7373 9.96346C50.0281 9.96346 50.2575 9.88875 50.4256 9.73934C50.5937 9.58992 50.6777 9.40929 50.6777 9.19746C50.6777 8.96861 50.5889 8.78703 50.4114 8.65275C50.2339 8.51657 49.9922 8.44848 49.6863 8.44848H49.4229V7.96902C49.676 7.96902 49.8695 7.95483 50.0036 7.92646C50.1376 7.8962 50.2557 7.82149 50.3576 7.70234C50.4615 7.58129 50.5134 7.44417 50.5134 7.29097C50.5134 7.1094 50.4426 6.95147 50.301 6.81718C50.1612 6.68289 49.9715 6.61575 49.7317 6.61575C49.5221 6.61575 49.3427 6.66871 49.1935 6.77462C49.0462 6.87865 48.9443 7.01766 48.8876 7.19167C48.831 7.36378 48.8026 7.4924 48.8026 7.57751L48.2758 7.45835C48.4061 6.57509 48.8933 6.13345 49.7373 6.13345C50.1433 6.13345 50.4653 6.24693 50.7032 6.4739C50.9411 6.69897 51.0601 6.96281 51.0601 7.26543C51.0601 7.65316 50.8769 7.95389 50.5106 8.16761C50.7221 8.22625 50.8986 8.34635 51.0402 8.52792C51.1837 8.7076 51.2555 8.92321 51.2555 9.17476C51.2555 9.53223 51.1167 9.83201 50.8391 10.0741C50.5634 10.3143 50.1971 10.4344 49.7402 10.4344C48.9546 10.4344 48.4439 10.0193 48.2078 9.18895Z" fill="black"/>
<path d="M51.4849 10.3635L53.0796 6.20438H53.6715L55.371 10.3635H54.745L54.2607 9.10384H52.5244L52.0684 10.3635H51.4849ZM52.683 8.65558H54.0907L53.6574 7.50374C53.5252 7.15384 53.427 6.86636 53.3628 6.64128C53.3099 6.90797 53.2353 7.17276 53.139 7.43566L52.683 8.65558Z" fill="black"/>
<path d="M55.8185 6.20438H56.368V9.87268H57.7474V6.20438H58.2969V9.87268H59.6762V6.20438H60.2257V9.87268H60.6024V11.5182H60.1124V10.3635H55.8185V6.20438Z" fill="black"/>
<path d="M61.2567 6.20438H61.7552V9.49819L63.9645 6.20438H64.5168V10.3635H64.0183V7.07819L61.8062 10.3635H61.2567V6.20438Z" fill="black"/>
<path d="M66.474 10.3635V6.69519H65.106V6.20438H68.3972V6.69519H67.0235V10.3635H66.474Z" fill="black"/>
<path d="M68.3151 10.3635L69.9097 6.20438H70.5017L72.2011 10.3635H71.5752L71.0908 9.10384H69.3546L68.8986 10.3635H68.3151ZM69.5132 8.65558H70.9209L70.4875 7.50374C70.3554 7.15384 70.2572 6.86636 70.193 6.64128C70.1401 6.90797 70.0655 7.17276 69.9692 7.43566L69.5132 8.65558Z" fill="black"/>
<path d="M74.2603 6.20438H77.5261V10.3635H76.9737V6.69519H74.8098V10.3635H74.2603V6.20438Z" fill="black"/>
<path d="M78.4239 10.3635V6.20438H79.9903C80.2659 6.20438 80.4765 6.21762 80.6219 6.2441C80.8258 6.27814 80.9967 6.34339 81.1345 6.43985C81.2724 6.53442 81.3829 6.66776 81.4659 6.83988C81.5509 7.01199 81.5934 7.20113 81.5934 7.40729C81.5934 7.76097 81.481 8.06075 81.2563 8.30663C81.0316 8.55061 80.6257 8.67261 80.0384 8.67261H78.9734V10.3635H78.4239ZM78.9734 8.1818H80.0469C80.4019 8.1818 80.654 8.1156 80.8032 7.98321C80.9523 7.85081 81.0269 7.66451 81.0269 7.42431C81.0269 7.2503 80.9825 7.10183 80.8938 6.97889C80.8069 6.85406 80.6917 6.77179 80.5482 6.73207C80.4557 6.70748 80.2848 6.69519 80.0356 6.69519H78.9734V8.1818Z" fill="black"/>
<path d="M81.4461 10.3635L83.0408 6.20438H83.6327L85.3322 10.3635H84.7062L84.2219 9.10384H82.4856L82.0296 10.3635H81.4461ZM82.6442 8.65558H84.0519L83.6186 7.50374C83.4864 7.15384 83.3882 6.86636 83.324 6.64128C83.2711 6.90797 83.1965 7.17276 83.1002 7.43566L82.6442 8.65558Z" fill="black"/>
<path d="M85.7485 10.3635V6.20438H87.3064C87.6236 6.20438 87.8776 6.24693 88.0683 6.33205C88.2609 6.41527 88.411 6.54482 88.5186 6.72072C88.6282 6.89473 88.6829 7.07724 88.6829 7.26827C88.6829 7.44606 88.6348 7.61344 88.5385 7.77043C88.4422 7.92741 88.2968 8.05413 88.1023 8.15059C88.3534 8.22435 88.546 8.35013 88.6801 8.52792C88.816 8.70571 88.884 8.91565 88.884 9.15774C88.884 9.35255 88.8425 9.53412 88.7594 9.70245C88.6782 9.86889 88.5772 9.99751 88.4563 10.0883C88.3355 10.1791 88.1835 10.2481 88.0003 10.2954C87.819 10.3408 87.5962 10.3635 87.3319 10.3635H85.7485ZM86.298 7.952H87.1959C87.4395 7.952 87.6142 7.93592 87.7199 7.90377C87.8596 7.86216 87.9644 7.79312 88.0343 7.69666C88.106 7.6002 88.1419 7.47916 88.1419 7.33352C88.1419 7.19545 88.1089 7.07441 88.0428 6.97038C87.9767 6.86446 87.8823 6.79259 87.7596 6.75477C87.6368 6.71505 87.4263 6.69519 87.1279 6.69519H86.298V7.952ZM86.298 9.87268H87.3319C87.5094 9.87268 87.634 9.86606 87.7057 9.85282C87.8322 9.83012 87.938 9.79229 88.023 9.73934C88.1079 9.68638 88.1778 9.60978 88.2326 9.50954C88.2873 9.4074 88.3147 9.29014 88.3147 9.15774C88.3147 9.00265 88.275 8.86836 88.1957 8.75488C88.1164 8.63951 88.006 8.55913 87.8643 8.51373C87.7246 8.46645 87.5226 8.44281 87.2582 8.44281H86.298V9.87268Z" fill="black"/>
<path d="M90.7987 10.3635L92.3934 6.20438H92.9853L94.6848 10.3635H94.0588L93.5745 9.10384H91.8382L91.3822 10.3635H90.7987ZM91.9968 8.65558H93.4045L92.9712 7.50374C92.839 7.15384 92.7408 6.86636 92.6766 6.64128C92.6237 6.90797 92.5491 7.17276 92.4528 7.43566L91.9968 8.65558Z" fill="black"/>
<path d="M95.1011 10.3635V6.20438H96.659C96.9762 6.20438 97.2302 6.24693 97.4209 6.33205C97.6135 6.41527 97.7636 6.54482 97.8712 6.72072C97.9808 6.89473 98.0355 7.07724 98.0355 7.26827C98.0355 7.44606 97.9874 7.61344 97.8911 7.77043C97.7948 7.92741 97.6494 8.05413 97.4549 8.15059C97.706 8.22435 97.8986 8.35013 98.0327 8.52792C98.1686 8.70571 98.2366 8.91565 98.2366 9.15774C98.2366 9.35255 98.1951 9.53412 98.112 9.70245C98.0308 9.86889 97.9298 9.99751 97.8089 10.0883C97.6881 10.1791 97.5361 10.2481 97.3529 10.2954C97.1716 10.3408 96.9488 10.3635 96.6845 10.3635H95.1011ZM95.6506 7.952H96.5485C96.7921 7.952 96.9668 7.93592 97.0725 7.90377C97.2122 7.86216 97.317 7.79312 97.3869 7.69666C97.4587 7.6002 97.4945 7.47916 97.4945 7.33352C97.4945 7.19545 97.4615 7.07441 97.3954 6.97038C97.3293 6.86446 97.2349 6.79259 97.1122 6.75477C96.9894 6.71505 96.7789 6.69519 96.4805 6.69519H95.6506V7.952ZM95.6506 9.87268H96.6845C96.862 9.87268 96.9866 9.86606 97.0583 9.85282C97.1849 9.83012 97.2906 9.79229 97.3756 9.73934C97.4605 9.68638 97.5304 9.60978 97.5852 9.50954C97.6399 9.4074 97.6673 9.29014 97.6673 9.15774C97.6673 9.00265 97.6277 8.86836 97.5483 8.75488C97.469 8.63951 97.3586 8.55913 97.217 8.51373C97.0772 8.46645 96.8752 8.44281 96.6108 8.44281H95.6506V9.87268Z" fill="black"/>
<path d="M99.6585 10.3635V6.69519H98.2904V6.20438H101.582V6.69519H100.208V10.3635H99.6585Z" fill="black"/>
<path d="M101.72 8.33784C101.72 7.64749 101.906 7.1075 102.276 6.71788C102.646 6.32637 103.123 6.13062 103.709 6.13062C104.092 6.13062 104.438 6.22235 104.745 6.40581C105.053 6.58927 105.287 6.84555 105.448 7.17465C105.61 7.50185 105.692 7.87351 105.692 8.28961C105.692 8.71138 105.607 9.08871 105.437 9.42159C105.267 9.75447 105.026 10.007 104.714 10.1791C104.403 10.3493 104.067 10.4344 103.706 10.4344C103.315 10.4344 102.966 10.3398 102.658 10.1507C102.35 9.96157 102.117 9.7034 101.958 9.37619C101.8 9.04899 101.72 8.70287 101.72 8.33784ZM102.287 8.34635C102.287 8.84756 102.421 9.24285 102.689 9.53223C102.959 9.81972 103.297 9.96346 103.703 9.96346C104.117 9.96346 104.457 9.81783 104.723 9.52656C104.991 9.23529 105.125 8.82202 105.125 8.28677C105.125 7.94822 105.067 7.65316 104.952 7.40161C104.839 7.14817 104.672 6.95241 104.451 6.81434C104.232 6.67438 103.985 6.6044 103.712 6.6044C103.323 6.6044 102.988 6.73869 102.706 7.00726C102.427 7.27394 102.287 7.72031 102.287 8.34635Z" fill="black"/>
<path d="M106.38 10.3635V6.20438H107.938C108.255 6.20438 108.509 6.24693 108.7 6.33205C108.892 6.41527 109.042 6.54482 109.15 6.72072C109.259 6.89473 109.314 7.07724 109.314 7.26827C109.314 7.44606 109.266 7.61344 109.17 7.77043C109.073 7.92741 108.928 8.05413 108.734 8.15059C108.985 8.22435 109.177 8.35013 109.311 8.52792C109.447 8.70571 109.515 8.91565 109.515 9.15774C109.515 9.35255 109.474 9.53412 109.391 9.70245C109.309 9.86889 109.208 9.99751 109.088 10.0883C108.967 10.1791 108.815 10.2481 108.632 10.2954C108.45 10.3408 108.227 10.3635 107.963 10.3635H106.38ZM106.929 7.952H107.827C108.071 7.952 108.245 7.93592 108.351 7.90377C108.491 7.86216 108.596 7.79312 108.666 7.69666C108.737 7.6002 108.773 7.47916 108.773 7.33352C108.773 7.19545 108.74 7.07441 108.674 6.97038C108.608 6.86446 108.514 6.79259 108.391 6.75477C108.268 6.71505 108.058 6.69519 107.759 6.69519H106.929V7.952ZM106.929 9.87268H107.963C108.141 9.87268 108.265 9.86606 108.337 9.85282C108.463 9.83012 108.569 9.79229 108.654 9.73934C108.739 9.68638 108.809 9.60978 108.864 9.50954C108.919 9.4074 108.946 9.29014 108.946 9.15774C108.946 9.00265 108.906 8.86836 108.827 8.75488C108.748 8.63951 108.637 8.55913 108.496 8.51373C108.356 8.46645 108.154 8.44281 107.889 8.44281H106.929V9.87268Z" fill="black"/>
<path d="M110.507 6.20438H113.107V10.3635H112.557V6.69519H111.056V8.83716C111.056 9.27217 111.035 9.59086 110.994 9.79324C110.954 9.99562 110.869 10.1535 110.739 10.267C110.609 10.3786 110.443 10.4344 110.243 10.4344C110.122 10.4344 109.977 10.4117 109.807 10.3663L109.9 9.87835C109.991 9.91618 110.069 9.93509 110.133 9.93509C110.257 9.93509 110.351 9.88875 110.413 9.79608C110.475 9.70151 110.507 9.48022 110.507 9.13221V6.20438Z" fill="black"/>
<path d="M113.554 10.3635L115.149 6.20438H115.741L117.44 10.3635H116.814L116.33 9.10384H114.594L114.138 10.3635H113.554ZM114.752 8.65558H116.16L115.727 7.50374C115.595 7.15384 115.496 6.86636 115.432 6.64128C115.379 6.90797 115.305 7.17276 115.208 7.43566L114.752 8.65558Z" fill="black"/>
<path d="M118.449 6.20438H120.975V9.87268H121.349V11.3338H120.859V10.3635H118.114V11.3338H117.624V9.87268H117.947C118.282 9.36768 118.449 8.34729 118.449 6.81151V6.20438ZM120.426 6.69519H118.978V6.90797C118.978 7.26165 118.946 7.74584 118.882 8.36053C118.82 8.97333 118.696 9.47738 118.511 9.87268H120.426V6.69519Z" fill="black"/>
<path d="M122.015 10.3635V6.20438H125.017V6.69519H122.564V7.96902H124.861V8.45699H122.564V9.87268H125.113V10.3635H122.015Z" fill="black"/>
<path d="M126.175 6.20438H128.776V10.3635H128.226V6.69519H126.725V8.83716C126.725 9.27217 126.704 9.59086 126.663 9.79324C126.623 9.99562 126.538 10.1535 126.408 10.267C126.277 10.3786 126.112 10.4344 125.912 10.4344C125.791 10.4344 125.646 10.4117 125.476 10.3663L125.569 9.87835C125.66 9.91618 125.737 9.93509 125.802 9.93509C125.926 9.93509 126.02 9.88875 126.082 9.79608C126.144 9.70151 126.175 9.48022 126.175 9.13221V6.20438Z" fill="black"/>
<path d="M129.699 6.20438H130.248V7.98037H131.24C131.702 7.98037 132.038 8.03427 132.245 8.14208C132.453 8.24989 132.602 8.39647 132.693 8.58182C132.783 8.76718 132.829 8.9582 132.829 9.1549C132.829 9.47644 132.719 9.75825 132.5 10.0003C132.281 10.2424 131.873 10.3635 131.277 10.3635H129.699V6.20438ZM130.248 9.89537H131.254C131.662 9.89537 131.927 9.8235 132.05 9.67976C132.175 9.53412 132.237 9.35917 132.237 9.1549C132.237 8.98846 132.192 8.84756 132.101 8.73219C132.012 8.61492 131.893 8.53927 131.744 8.50522C131.595 8.47118 131.342 8.45415 130.985 8.45415H130.248V9.89537Z" fill="black"/>
<path d="M133.489 6.20438H134.038V9.87268H136.202V6.20438H136.755V9.87268H137.134V11.5182H136.647V10.3635H133.489V6.20438Z" fill="black"/>
<path d="M137.791 10.3635V6.20438H140.794V6.69519H138.341V7.96902H140.638V8.45699H138.341V9.87268H140.89V10.3635H137.791Z" fill="black"/>
<path d="M141.626 10.3635V6.20438H143.184C143.501 6.20438 143.755 6.24693 143.946 6.33205C144.139 6.41527 144.289 6.54482 144.396 6.72072C144.506 6.89473 144.561 7.07724 144.561 7.26827C144.561 7.44606 144.512 7.61344 144.416 7.77043C144.32 7.92741 144.174 8.05413 143.98 8.15059C144.231 8.22435 144.424 8.35013 144.558 8.52792C144.694 8.70571 144.762 8.91565 144.762 9.15774C144.762 9.35255 144.72 9.53412 144.637 9.70245C144.556 9.86889 144.455 9.99751 144.334 10.0883C144.213 10.1791 144.061 10.2481 143.878 10.2954C143.697 10.3408 143.474 10.3635 143.21 10.3635H141.626ZM142.176 7.952H143.074C143.317 7.952 143.492 7.93592 143.598 7.90377C143.737 7.86216 143.842 7.79312 143.912 7.69666C143.984 7.6002 144.02 7.47916 144.02 7.33352C144.02 7.19545 143.987 7.07441 143.921 6.97038C143.854 6.86446 143.76 6.79259 143.637 6.75477C143.515 6.71505 143.304 6.69519 143.006 6.69519H142.176V7.952ZM142.176 9.87268H143.21C143.387 9.87268 143.512 9.86606 143.583 9.85282C143.71 9.83012 143.816 9.79229 143.901 9.73934C143.986 9.68638 144.056 9.60978 144.11 9.50954C144.165 9.4074 144.192 9.29014 144.192 9.15774C144.192 9.00265 144.153 8.86836 144.073 8.75488C143.994 8.63951 143.884 8.55913 143.742 8.51373C143.602 8.46645 143.4 8.44281 143.136 8.44281H142.176V9.87268Z" fill="black"/>
</g>
<defs>
<clipPath id="clip0_2680_2821">
<rect width="170" height="36" fill="white"/>
</clipPath>
</defs>
</svg>
